<?xml version="1.0" standalone="no"?>
<!DOCTYPE svg PUBLIC "-//W3C//DTD SVG 20010904//EN"
 "http://www.w3.org/TR/2001/REC-SVG-20010904/DTD/svg10.dtd">
<svg version="1.0" xmlns="http://www.w3.org/2000/svg"
 width="100%" height="100%" viewBox="0 -100 900 900"
 preserveAspectRatio="xMidYMid meet"
 style="display: block; margin: auto; background: transparent;">

<g transform="translate(0.000000,751.000000) scale(0.100000,-0.100000)"
fill="#ffffff" stroke="none">
<path d="M3795 6013 c-20 -19 -27 23 80 -493 411 -1981 411 -1982 432 -1997
54 -40 85 7 166 254 38 114 210 636 382 1158 172 523 320 973 328 1000 14 51
13 74 -7 87 -6 4 -316 8 -688 8 -616 0 -678 -1 -693 -17z"/>
<path d="M3265 5771 c-16 -11 -271 -159 -565 -329 -294 -171 -546 -321 -561
-334 l-27 -23 283 -390 c250 -343 323 -435 346 -435 9 0 50 93 249 565 100
237 226 535 281 664 54 129 99 244 99 256 0 47 -52 59 -105 26z"/>
<path d="M5596 5658 c-8 -13 -200 -520 -426 -1128 -633 -1699 -619 -1660 -587
-1660 22 0 74 61 463 535 199 242 576 701 838 1020 262 319 479 591 483 604 3
13 2 31 -4 40 -9 15 -396 352 -612 532 -100 84 -130 95 -155 57z"/>
<path d="M3447 4972 c-14 -16 -79 -182 -343 -884 -24 -65 -44 -130 -44 -147 0
-22 100 -165 458 -652 708 -965 679 -927 723 -949 21 -11 41 -20 44 -20 15 0
0 78 -49 247 -196 675 -224 772 -376 1293 -38 129 -116 399 -175 600 -58 201
-115 395 -126 432 -11 37 -27 74 -35 83 -21 20 -57 19 -77 -3z"/>
</g>
</svg>